# xmcd CD database file
#
# Track frame offsets:
#	150
#	14827
#	26000
#	39283
#	52470
#	65354
#	79103
#	92983
#	108140
#	118101
#	133336
#	147555
#	160149
#	175350
#	186366
#
# Disc length: 2683 seconds
#
# Revision: 0
# Processed by: cddbd v1.5.2PL0 Copyright (c) Steve Scherf et al.
# Submitted via: CDex 1.51
#
DISCID=e00a790f
DTITLE=Lionel Hampton - Aufnahmen von 1937-1946
DYEAR=1900
DGENRE=Jazz
TTITLE0=1. Musk(r)at Ramble
TTITLE1=2. Gin for Christmas
TTITLE2=3. I know that you know
TTITLE3=4. Piano Stomp
TTITLE4=5. I've Found a New Baby
TTITLE5=6. Ventral Avenua Breakdown
TTITLE6=7. The Lamplighter
TTITLE7=8. Ring Dem Bells
TTITLE8=9. When Lights Are Low
TTITLE9=10. I Surrender, Dear
TTITLE10=11. Chop Chop
TTITLE11=12. Four Or Five Times
TTITLE12=13. Shoe Shiners Drag
TTITLE13=14. I'm Mindin' My Business
TTITLE14=15. The Sunny Side of the Street
EXTD=
EXTT0=
EXTT1=
EXTT2=
EXTT3=
EXTT4=
EXTT5=
EXTT6=
EXTT7=
EXTT8=
EXTT9=
EXTT10=
EXTT11=
EXTT12=
EXTT13=
EXTT14=
PLAYORDER=
